# xmcd CD database file generated by LOLA_Freedb v0.9beta0
# 
# Track frame offsets:
#      150
#      15239
#      34285
#      38748
#      64067
#      106846
#      123792
#      147792
# 
# Disc length: 2278 seconds
# 
# Revision: 0 
# Processed by: cddbd v1.5.2PL0 Copyright (c) Steve Scherf et al.
# Submitted via: LOLA_Freedb v0.9beta0
# 
DISCID=5c08e408
DTITLE=Foxy - Hot Numbers
DYEAR=1979
DGENRE=
TTITLE0=Headhunter
TTITLE1=Devil Boogie
TTITLE2=Give Me A Break
TTITLE3=Nobody Will Ever Take Me Away From You
TTITLE4=Hot Number
TTITLE5=Lady
TTITLE6=Give Me That Groove
TTITLE7=Lady Of The Streets
EXTD=
EXTT0=
EXTT1=
EXTT2=
EXTT3=
EXTT4=
EXTT5=
EXTT6=
EXTT7=
PLAYORDER=
